# Blender v2.75 (sub 0) OBJ File: 'heart.blend'
# www.blender.org
mtllib heart.mtl
o <STL_BINARY>
v -2.621017 -7.399363 0.244719
v -2.752317 -7.193243 -1.848261
v -7.829957 -2.233350 -1.672041
v -7.993118 -2.078528 1.466179
v -9.536418 1.064818 1.425739
v -9.415698 2.766438 2.040979
v -9.590158 2.116438 -1.656621
v -8.972617 4.382638 2.026959
v -9.176957 4.142097 -1.733761
v -7.823957 5.908457 1.669219
v -7.604038 6.070677 -1.869981
v -5.942777 6.963918 1.531659
v -3.220777 6.842137 1.785519
v -3.839457 7.039098 -1.516501
v -1.833809 6.232437 1.517699
v -0.543157 4.876018 1.670999
v -0.641931 5.102918 -1.489481
v -9.206397 0.598990 -2.077921
v -5.762537 6.873718 -1.914481
v -1.764663 6.129817 -1.768341
v -0.034560 3.882618 -1.677241
v -0.000522 3.878278 1.512699
v 7.864803 -2.194446 -1.679921
v 9.464923 0.920290 -1.586821
v 7.844083 -2.186426 1.774959
v 9.521523 1.208038 1.690959
v 0.009882 -10.636343 -2.010962
v 3.859803 -6.021023 -1.783081
v 3.885504 -6.080102 1.560579
v -0.019004 -10.920043 1.301159
v 8.940043 1.336578 -2.606947
v 6.636163 -1.797034 -2.891317
v 8.270383 2.887278 -2.968527
v 8.080663 0.717360 2.981279
v 3.528323 -5.279723 2.687519
v 7.429803 -1.640174 2.581459
v 8.715003 0.882556 2.603579
v 9.472803 3.114818 -1.809761
v 8.454803 5.297178 -1.846421
v 8.654423 5.155418 1.545979
v 6.469523 6.662218 -1.948241
v 6.117664 6.928957 1.548640
v 4.269603 7.068458 -1.634541
v 1.944963 6.330438 -1.532681
v 3.487703 6.889237 1.809979
v 1.410251 5.985497 1.337299
v 9.561362 2.954998 1.449739
v 6.514403 5.269817 -2.958765
v 4.411203 6.069557 -2.839855
v 2.376923 5.779917 -2.614299
v 1.083183 2.415878 -2.990753
v 0.366795 3.317418 -2.461897
v 8.858123 3.548398 2.508679
v 7.559223 4.244838 2.963759
v 7.099283 5.803037 2.461359
v 4.965303 6.590337 2.427299
v 5.508624 5.529758 2.984559
v 2.662703 5.791158 2.730499
v 1.794429 4.446497 2.936359
v 0.170701 3.749557 2.158179
v 1.144459 2.097918 2.967339
v -0.028556 -10.165163 2.343918
v -0.007656 -8.306883 2.953638
v -3.020877 -6.882802 1.832879
v -0.018475 -8.535442 -2.945436
v -7.285157 -1.726354 -2.637891
v -7.814537 0.384496 -2.982821
v -8.578597 3.739978 -2.687643
v -7.304498 4.701078 -2.961337
v -4.907476 6.538358 -2.505741
v -3.334577 5.752258 -2.913909
v -1.163379 4.284318 -2.781939
v -1.249215 1.956518 -2.985789
v -0.575789 3.003538 -2.728941
v -0.602025 2.987797 2.746979
v -1.217357 2.064497 2.975499
v -6.562637 -1.378122 2.971719
v -8.320297 2.698177 2.955459
v -6.308397 5.598018 2.929919
v -2.142499 5.117477 2.885359
v -7.065177 -2.439554 2.356319
v -8.809458 0.700732 2.535839
v -4.632317 6.446237 2.617499
vn -0.997700 0.057400 0.037000
vn -0.963700 0.264500 0.035400
vn -0.801200 0.597900 -0.022400
vn -0.488800 0.872400 0.009600
vn 0.039800 0.997900 0.052100
vn 0.399100 0.916700 -0.020100
vn 0.399200 0.916600 -0.020200
vn 0.722700 0.690700 0.027000
vn -0.971600 -0.228700 -0.061100
vn -0.979700 0.200300 0.011000
vn -0.774900 0.632100 0.001700
vn -0.400200 0.915300 -0.044900
vn -0.079400 0.996400 -0.030200
vn 0.399300 0.916600 -0.020200
vn 0.676100 0.736800 -0.008800
vn 0.895500 0.445100 0.004000
vn 0.877900 0.478800 -0.008700
vn 0.889400 -0.457100 0.006400
vn 0.896500 -0.442400 0.023400
vn 0.768200 -0.640000 -0.017200
vn 0.778700 -0.625700 -0.046800
vn 0.701600 -0.712300 -0.018000
vn 0.690700 -0.723100 0.005800
vn 0.755000 -0.371700 -0.540200
vn 0.589600 -0.368300 -0.718800
vn 0.265900 -0.108500 -0.957900
vn 0.236000 -0.225500 0.945200
vn 0.544100 -0.284100 0.789500
vn 0.704700 -0.364400 0.608800
vn 0.758800 -0.361600 0.541700
vn 0.999800 -0.005300 -0.016800
vn 0.905900 0.422000 -0.035700
vn 0.566800 0.823900 -0.005800
vn 0.173300 0.983200 -0.057600
vn -0.303300 0.952700 -0.019300
vn -0.773800 0.629800 -0.068500
vn 0.999200 -0.026700 -0.028500
vn 0.924400 0.381300 -0.006400
vn 0.573000 0.819600 0.000500
vn -0.010100 0.998700 0.049700
vn -0.405200 0.913600 0.034300
vn -0.830600 0.556900 0.009600
vn 0.879400 -0.051200 -0.473400
vn 0.636600 0.284900 -0.716600
vn 0.176400 0.581900 -0.793900
vn -0.131300 0.160000 -0.978400
vn -0.640800 0.549800 -0.535800
vn -0.611700 0.459500 -0.643900
vn -0.362500 0.240200 -0.900500
vn -0.030200 0.068700 -0.997200
vn 0.463200 0.344700 -0.816500
vn 0.411500 0.544000 -0.731300
vn 0.676500 0.122800 -0.726100
vn 0.845500 0.054100 0.531200
vn 0.357400 0.057500 0.932200
vn 0.752200 -0.016900 0.658700
vn 0.533300 0.762300 0.366800
vn 0.261200 0.735000 0.625800
vn 0.181800 0.528800 0.829100
vn -0.038400 0.449300 0.892600
vn -0.438700 0.747600 0.498600
vn -0.069500 0.194600 0.978400
vn -0.584400 0.544800 0.601400
vn -0.536100 0.455000 0.711000
vn 0.024600 0.921600 0.387400
vn -0.150600 0.699100 0.699000
vn -0.776400 0.546000 0.314800
vn 0.511000 0.003200 0.859600
vn 0.860200 0.337800 0.381900
vn 0.485100 0.394800 0.780300
vn 0.235000 0.360400 0.902700
vn 0.584900 0.470100 0.661000
vn -0.477100 0.143500 0.867000
vn 0.548200 -0.590000 0.592800
vn 0.646200 -0.510400 0.567300
vn 0.305100 -0.276200 0.911400
vn 0.530600 -0.550000 0.645000
vn 0.323000 -0.298300 0.898200
vn 0.692400 -0.581400 0.427300
vn -0.780000 -0.622900 -0.060200
vn -0.737100 -0.674900 0.033900
vn -0.761700 -0.647900 -0.000600
vn -0.803000 -0.596000 -0.008300
vn -0.736500 -0.676100 -0.020400
vn -0.703100 -0.711100 -0.005800
vn -0.702900 -0.711200 0.006600
vn -0.897700 -0.439800 -0.025000
vn -0.897500 -0.440400 -0.025500
vn -0.897200 -0.440800 -0.025900
vn 0.382700 -0.371200 -0.846000
vn 0.510900 -0.516200 -0.687500
vn 0.712100 -0.574100 -0.404100
vn -0.680400 -0.417000 -0.602700
vn -0.553800 -0.267700 -0.788400
vn -0.721400 0.009800 -0.692400
vn -0.549900 -0.051900 -0.833600
vn -0.507500 0.466400 -0.724600
vn -0.298600 0.577900 -0.759500
vn -0.077100 0.333600 -0.939600
vn 0.622700 0.522700 -0.582300
vn -0.265200 0.564700 -0.781500
vn 0.115900 0.082400 -0.989800
vn 0.408600 0.538000 -0.737300
vn -0.233200 0.032400 -0.971900
vn -0.810000 0.143600 -0.568600
vn -0.638800 0.478500 -0.602400
vn 0.251100 0.075300 -0.965000
vn 0.021300 0.882500 -0.469700
vn 0.217500 0.755900 -0.617500
vn 0.257900 0.755400 -0.602400
vn 0.719400 0.304200 -0.624500
vn 0.703800 0.436500 -0.560400
vn -0.494000 -0.358900 -0.791900
vn -0.241700 -0.215200 -0.946200
vn -0.527200 -0.532800 -0.662000
vn 0.006600 0.001500 -1.000000
vn 0.003500 -0.019000 -0.999800
vn 0.004100 -0.018200 -0.999800
vn 0.003600 -0.018800 -0.999800
vn 0.004300 -0.018000 -0.999800
vn 0.002700 0.006100 -1.000000
vn -0.009900 0.039400 -0.999200
vn -0.055500 0.271400 -0.960900
vn 0.006100 0.022300 -0.999700
vn -0.001700 0.005200 -1.000000
vn 0.058400 0.539300 -0.840100
vn -0.088500 0.786200 -0.611600
vn -0.564300 -0.556000 -0.610200
vn -0.005600 -0.025200 0.999700
vn 0.000600 0.013000 0.999900
vn -0.000000 0.240300 0.970700
vn 0.003500 -0.001700 1.000000
vn -0.004600 0.004300 1.000000
vn -0.002200 -0.001100 1.000000
vn 0.000600 -0.002000 1.000000
vn -0.002600 0.002900 1.000000
vn 0.010800 0.001300 0.999900
vn -0.000200 0.029500 0.999600
vn -0.433500 -0.289600 0.853400
vn -0.821800 -0.398200 0.407500
vn -0.707200 -0.425100 0.564900
vn -0.299500 -0.125400 0.945800
vn -0.647500 -0.638400 0.416100
vn -0.505400 -0.539400 0.673500
vn -0.446500 -0.274400 0.851700
vn -0.354500 -0.337700 0.871900
vn -0.704400 -0.578000 0.412000
vn -0.641000 -0.004300 0.767500
vn -0.848300 -0.125800 0.514300
vn -0.624100 0.177700 0.760900
vn -0.427200 0.303900 0.851500
vn -0.246800 0.724700 0.643400
vn 0.544300 0.585800 0.600400
vn 0.594400 0.384100 0.706500
vn 0.218400 0.094900 0.971200
vn -0.478100 0.525000 0.704100
vn -0.356100 0.713300 0.603700
vn 0.000300 0.902800 0.430100
vn 0.256500 0.628600 0.734200
vn 0.041600 0.271800 0.961400
vn 0.411300 0.658800 0.629900
vn 0.745700 0.312200 0.588600
vn -0.543600 0.783700 0.300500
vn 0.150000 0.504900 0.850100
vn 0.052200 0.771900 -0.633600
vn -0.278800 0.806300 -0.521700
vn -0.177400 0.747400 -0.640200
usemtl DefaultMaterial
s 1
f 5//1 6//1 7//1
f 6//2 8//2 9//2
f 8//3 10//3 11//3
f 10//4 12//4 11//4
f 12//5 13//5 14//5
f 13//6 15//6 14//7
f 15//8 16//8 17//8
f 18//9 5//9 7//9
f 7//10 6//10 9//10
f 9//11 8//11 11//11
f 11//12 12//12 19//12
f 19//13 12//13 14//13
f 14//7 15//6 20//14
f 20//15 15//15 17//15
f 17//16 16//16 21//16
f 16//17 22//17 21//17
f 23//18 24//18 25//18
f 24//19 26//19 25//19
f 27//20 28//20 29//20
f 30//21 27//21 29//21
f 29//22 28//22 25//22
f 28//23 23//23 25//23
f 31//24 24//24 23//24
f 32//25 31//25 23//25
f 33//26 31//26 32//26
f 34//27 35//27 36//27
f 36//28 37//28 34//28
f 25//29 37//29 36//29
f 37//30 25//30 26//30
f 24//31 38//31 26//31
f 38//32 39//32 40//32
f 39//33 41//33 42//33
f 41//34 43//34 42//34
f 43//35 44//35 45//35
f 44//36 21//36 46//36
f 26//37 38//37 47//37
f 47//38 38//38 40//38
f 40//39 39//39 42//39
f 42//40 43//40 45//40
f 45//41 44//41 46//41
f 46//42 21//42 22//42
f 24//43 31//43 38//43
f 38//44 33//44 39//44
f 48//45 49//45 41//45
f 50//46 49//46 51//46
f 44//47 50//47 21//47
f 21//48 50//48 52//48
f 52//49 50//49 51//49
f 51//50 49//50 48//50
f 48//51 39//51 33//51
f 48//52 41//52 39//52
f 33//53 38//53 31//53
f 26//54 47//54 53//54
f 54//55 34//55 53//55
f 37//56 26//56 53//56
f 55//57 40//57 42//57
f 56//58 55//58 42//58
f 56//59 57//59 55//59
f 57//60 56//60 58//60
f 45//61 46//61 58//61
f 59//62 57//62 58//62
f 58//63 46//63 60//63
f 59//64 58//64 60//64
f 45//65 56//65 42//65
f 56//66 45//66 58//66
f 60//67 46//67 22//67
f 37//68 53//68 34//68
f 47//69 40//69 53//69
f 53//70 55//70 54//70
f 57//71 54//71 55//71
f 55//72 53//72 40//72
f 61//73 59//73 60//73
f 25//74 35//74 29//74
f 62//75 29//75 35//75
f 63//76 35//76 34//76
f 35//77 25//77 36//77
f 62//78 35//78 63//78
f 30//79 29//79 62//79
f 27//80 30//80 2//80
f 64//81 1//82 30//83
f 30//83 1//82 2//84
f 2//84 1//82 3//85
f 64//81 4//86 1//82
f 4//86 3//85 1//82
f 3//87 4//88 18//88
f 4//88 5//89 18//88
f 65//90 32//90 27//90
f 28//91 32//91 23//91
f 32//92 28//92 27//92
f 66//93 3//93 18//93
f 67//94 66//94 18//94
f 68//95 18//95 7//95
f 67//96 18//96 68//96
f 69//97 68//97 11//97
f 70//98 69//98 19//98
f 69//99 70//99 71//99
f 20//100 17//100 72//100
f 19//101 69//101 11//101
f 72//102 73//102 71//102
f 71//103 20//103 72//103
f 67//104 68//104 69//104
f 68//105 7//105 9//105
f 68//106 9//106 11//106
f 74//107 73//107 72//107
f 70//108 19//108 14//108
f 70//109 14//109 71//109
f 71//110 14//110 20//110
f 72//111 21//111 74//111
f 17//112 21//112 72//112
f 27//113 2//113 65//113
f 67//114 65//114 66//114
f 65//115 2//115 66//115
f 65//116 67//116 32//116
f 67//117 51//118 32//119
f 32//119 51//118 33//120
f 48//121 33//121 51//121
f 67//122 73//122 51//122
f 73//123 74//123 51//123
f 71//124 73//124 69//124
f 69//125 73//125 67//125
f 74//126 52//126 51//126
f 74//127 21//127 52//127
f 2//128 3//128 66//128
f 57//129 59//129 54//129
f 59//130 61//130 34//130
f 61//131 75//131 76//131
f 61//132 76//132 63//132
f 54//133 59//133 34//133
f 34//134 61//134 63//134
f 76//135 77//135 63//135
f 78//136 77//136 76//136
f 79//137 78//137 80//137
f 80//138 78//138 76//138
f 81//139 77//139 82//139
f 82//140 5//140 4//140
f 81//141 82//141 4//141
f 77//142 78//142 82//142
f 81//143 4//143 64//143
f 63//144 81//144 64//144
f 63//145 64//145 62//145
f 77//146 81//146 63//146
f 30//147 62//147 64//147
f 82//148 78//148 6//148
f 5//149 82//149 6//149
f 6//150 78//150 8//150
f 8//151 78//151 79//151
f 12//152 79//152 83//152
f 16//153 15//153 80//153
f 16//154 80//154 75//154
f 80//155 76//155 75//155
f 79//156 10//156 8//156
f 79//157 12//157 10//157
f 12//158 83//158 13//158
f 83//159 80//159 13//159
f 83//160 79//160 80//160
f 13//161 80//161 15//161
f 75//162 22//162 16//162
f 75//163 60//163 22//163
f 60//164 75//164 61//164
f 41//165 49//165 43//165
f 43//166 50//166 44//166
f 49//167 50//167 43//167
